# xmcd
#
# Track frame offsets:
# 150
# 13149
# 30384
# 47063
# 62830
# 82386
# 97110
# 115842
# 130991
# 147454
# 162803
# 179012
#
# Disc length: 2557 seconds
#
#
# Revision: 0
# Processed by: cddbd v1.5.2PL0 Copyright (c) Steve Scherf et al.
# Submitted via: FreeRIP 2.945 
#
DISCID=ae09fb0c
DTITLE=Jarri Terres - De Rédeas na Mão
DYEAR=1900
DGENRE=
TTITLE0=Tudo é Milonga pra Mim
TTITLE1=Romance Del Chamame
TTITLE2=Meu Canto Antigo
TTITLE3=Conjunto "Pena Y Olvido"
TTITLE4=De Rédeas na Mão
TTITLE5=Assombração
TTITLE6=Até o Dia de Voltar
TTITLE7=Cantando pra Quem Doma
TTITLE8=Meu Verso a Wilson
TTITLE9=Estampa Domingueira
TTITLE10=Milonga do Carreteiro
TTITLE11=Versos de Campo
EXTD=
EXTT0=
EXTT1=
EXTT2=
EXTT3=
EXTT4=
EXTT5=
EXTT6=
EXTT7=
EXTT8=
EXTT9=
EXTT10=
EXTT11=
PLAYORDER=
